<svg>
	<symbol id="html" aria-labelledby="simpleicons-html5-icon" role="img" viewBox="0 0 24 24"
		xmlns="http://www.w3.org/2000/svg">
		<title id="simpleicons-html5-icon">HTML5 icon</title>
		<path
			d="M1.5 0h21l-1.91 21.563L11.977 24l-8.564-2.438L1.5 0zm7.031 9.75l-.232-2.718 10.059.003.23-2.622L5.412 4.41l.698 8.01h9.126l-.326 3.426-2.91.804-2.955-.81-.188-2.11H6.248l.33 4.171L12 19.351l5.379-1.443.744-8.157H8.531z">
		</path>
	</symbol>
	<symbol id="css" aria-labelledby="simpleicons-css3-icon" role="img" viewBox="0 0 24 24"
		xmlns="http://www.w3.org/2000/svg">
		<title id="simpleicons-css3-icon">CSS3 icon</title>
		<path
			d="M1.5 0h21l-1.91 21.563L11.977 24l-8.565-2.438L1.5 0zm17.09 4.413L5.41 4.41l.213 2.622 10.125.002-.255 2.716h-6.64l.24 2.573h6.182l-.366 3.523-2.91.804-2.956-.81-.188-2.11h-2.61l.29 3.855L12 19.288l5.373-1.53L18.59 4.414z">
		</path>
	</symbol>
	<symbol id="js" aria-labelledby="simpleicons-javascript-icon" role="img" viewBox="0 0 24 24"
		xmlns="http://www.w3.org/2000/svg">
		<title id="simpleicons-javascript-icon">JavaScript icon</title>
		<path
			d="M0 0h24v24H0V0zm22.034 18.276c-.175-1.095-.888-2.015-3.003-2.873-.736-.345-1.554-.585-1.797-1.14-.091-.33-.105-.51-.046-.705.15-.646.915-.84 1.515-.66.39.12.75.42.976.9 1.034-.676 1.034-.676 1.755-1.125-.27-.42-.404-.601-.586-.78-.63-.705-1.469-1.065-2.834-1.034l-.705.089c-.676.165-1.32.525-1.71 1.005-1.14 1.291-.811 3.541.569 4.471 1.365 1.02 3.361 1.244 3.616 2.205.24 1.17-.87 1.545-1.966 1.41-.811-.18-1.26-.586-1.755-1.336l-1.83 1.051c.21.48.45.689.81 1.109 1.74 1.756 6.09 1.666 6.871-1.004.029-.09.24-.705.074-1.65l.046.067zm-8.983-7.245h-2.248c0 1.938-.009 3.864-.009 5.805 0 1.232.063 2.363-.138 2.711-.33.689-1.18.601-1.566.48-.396-.196-.597-.466-.83-.855-.063-.105-.11-.196-.127-.196l-1.825 1.125c.305.63.75 1.172 1.324 1.517.855.51 2.004.675 3.207.405.783-.226 1.458-.691 1.811-1.411.51-.93.402-2.07.397-3.346.012-2.054 0-4.109 0-6.179l.004-.056z">
		</path>
	</symbol>
	<symbol id="sass" aria-labelledby="simpleicons-sass-icon" role="img" viewBox="0 0 24 24"
	xmlns="http://www.w3.org/2000/svg">
		<title id="simpleicons-sass-icon">Sass icon</title>
		<path
			d="M12 0c6.627 0 12 5.373 12 12s-5.373 12-12 12S0 18.627 0 12 5.373 0 12 0zM9.615 15.998c.175.645.156 1.248-.024 1.792l-.065.18c-.024.061-.052.12-.078.176-.14.29-.326.56-.555.81-.698.759-1.672 1.047-2.09.805-.45-.262-.226-1.335.584-2.19.871-.918 2.12-1.509 2.12-1.509v-.003l.108-.061zm9.911-10.861c-.542-2.133-4.077-2.834-7.422-1.645-1.989.707-4.144 1.818-5.693 3.267C4.568 8.48 4.275 9.98 4.396 10.607c.427 2.211 3.457 3.657 4.703 4.73v.006c-.367.18-3.056 1.529-3.686 2.925-.675 1.47.105 2.521.615 2.655 1.575.436 3.195-.36 4.065-1.649.84-1.261.766-2.881.404-3.676.496-.135 1.08-.195 1.83-.104 2.101.24 2.521 1.56 2.43 2.1-.09.539-.523.854-.674.944-.15.091-.195.12-.181.181.015.09.091.09.21.075.165-.03 1.096-.45 1.141-1.471.045-1.29-1.186-2.729-3.375-2.7-.9.016-1.471.091-1.875.256-.03-.045-.061-.075-.105-.105-1.35-1.455-3.855-2.475-3.75-4.41.03-.705.285-2.564 4.8-4.814 3.705-1.846 6.661-1.335 7.171-.21.733 1.604-1.576 4.59-5.431 5.024-1.47.165-2.235-.404-2.431-.615-.209-.225-.239-.24-.314-.194-.12.06-.045.255 0 .375.12.3.585.825 1.396 1.095.704.225 2.43.359 4.5-.45 2.324-.899 4.139-3.405 3.614-5.505l.073.067z">
		</path>
	</symbol>
	<symbol id="gulp" aria-labelledby="simpleicons-gulp-icon" role="img" viewBox="0 0 24 24"
		xmlns="http://www.w3.org/2000/svg">
		<title id="simpleicons-gulp-icon">Gulp icon</title>
		<path
			d="M15.156 19.432l.636-1.084s-1.444.591-3.86.591c-2.418 0-3.84-.568-3.84-.568l.711 1.183.252 3.729c0 .403 1.314.718 2.936.718 1.623 0 2.938-.314 2.938-.718l.229-3.835v-.016zm.615-7.046c-.769.046-1.153.903-1.539 1.805-.143.33-.63 1.737-.948 1.563-.318-.173.413-1.329.619-2.017-.237.174-1.105.849-1.329.215-.358.314-1.129.48-1.042-.329-.191.345-.621.823-1.139.614-.673-.255.395-2.411.66-2.307.266.121-.053.6-.136.794-.186.419-.398.958-.255 1.063.24.194.904-.703.919-.719.124-.165.479-1.229.763-1.107.285.134-.711 1.541-.34 1.826.076.06.383-.03.569-.239.12-.12.078-.42.479-1.378.404-.959.764-2.156 1.039-2.066s.049.703-.051.943c-.464 1.078-1.268 2.844-.89 2.71.374-.135.569-.135.943-.569.374-.434.345-1.152.599-1.137.24.014.21.254.15.418.24-.27 1.152-.868 1.363-.284.254.688-1.304 1.692-.914 1.632.375-.045.988-.434 1.258-.793l.719-6.5s-.734.6-5.361.6-5.284-.584-5.284-.584l.613 5.93c.33-.928 1.108-2.814 2.322-2.74.554.03 1.303 1.109.658 1.139-.27.015-.3-.539-.614-.614-.239-.046-.554.135-.763.345-.404.404-1.304 2.006-1.184 2.801.15 1.018 1.407-.346 1.617-.75.149-.283.254-1.138.568-1.048.33.09-.029.974-.27 1.737-.27.869-.404 1.781-.732 1.676-.33-.104.209-1.227.178-1.422-.313.299-.883 1.02-1.631.659l.374 3.699s1.019.793 4.073.793 4.118-.793 4.118-.793l.479-4.283c-.389.39-1.617 1.063-1.692.3-.059-.614 1.333-1.498.974-1.514l.06-.069zM17.346.669l-2.659 2.8-.486 1.901c1.881.12 3.189.386 3.189.694 0 .419-2.414.757-5.391.757s-5.39-.343-5.39-.763c0-.419 2.414-.764 5.391-.764.423 0 .844 0 1.264.016l.561-2.276L16.65.039c.068-.09.28-.015.474.15.194.149.299.344.239.434v.03l-.017.016zm-3.834 5.795s-.523 0-.61-.08c-.022-.025-.036-.058-.036-.09 0-.058.039-.091.09-.11l.044.075c-.021.006-.029.015-.033.023 0 .041.314.069.555.066.239-.003.531-.023.533-.064 0-.012-.023-.023-.061-.033l.045-.072c.063.02.117.058.117.121 0 .11-.141.128-.23.141-.107.015-.412.023-.412.023h-.002z">
		</path>
	</symbol>
	<symbol id="wp" role="img" viewBox="0 0 24 24" xmlns="http://www.w3.org/2000/svg"><title>WordPress</title><path d="M21.469 6.825c.84 1.537 1.318 3.3 1.318 5.175 0 3.979-2.156 7.456-5.363 9.325l3.295-9.527c.615-1.54.82-2.771.82-3.864 0-.405-.026-.78-.07-1.11m-7.981.105c.647-.03 1.232-.105 1.232-.105.582-.075.514-.93-.067-.899 0 0-1.755.135-2.88.135-1.064 0-2.85-.15-2.85-.15-.585-.03-.661.855-.075.885 0 0 .54.061 1.125.09l1.68 4.605-2.37 7.08L5.354 6.9c.649-.03 1.234-.1 1.234-.1.585-.075.516-.93-.065-.896 0 0-1.746.138-2.874.138-.2 0-.438-.008-.69-.015C4.911 3.15 8.235 1.215 12 1.215c2.809 0 5.365 1.072 7.286 2.833-.046-.003-.091-.009-.141-.009-1.06 0-1.812.923-1.812 1.914 0 .89.513 1.643 1.06 2.531.411.72.89 1.643.89 2.977 0 .915-.354 1.994-.821 3.479l-1.075 3.585-3.9-11.61.001.014zM12 22.784c-1.059 0-2.081-.153-3.048-.437l3.237-9.406 3.315 9.087c.024.053.05.101.078.149-1.12.393-2.325.609-3.582.609M1.211 12c0-1.564.336-3.05.935-4.39L7.29 21.709C3.694 19.96 1.212 16.271 1.211 12M12 0C5.385 0 0 5.385 0 12s5.385 12 12 12 12-5.385 12-12S18.615 0 12 0"/>
	</symbol>
	<symbol id="bs" aria-labelledby="simpleicons-bootstrap-icon" role="img" viewBox="0 0 24 24"
		xmlns="http://www.w3.org/2000/svg">
		<title id="simpleicons-bootstrap-icon">Bootstrap icon</title>
		<path
			d="M20 0H4C1.793.006.006 1.793 0 4v16c0 2.2 1.8 4 4 4h16c2.2 0 4-1.8 4-4V4c0-2.2-1.8-4-4-4zm-2.187 16.855c-.2.482-.517.907-.923 1.234-.42.34-.952.62-1.607.82-.654.203-1.432.305-2.333.305H6.518v-14h6.802c1.258 0 2.266.283 3.02.86.76.58 1.138 1.444 1.138 2.61 0 .705-.172 1.31-.518 1.81-.344.497-.84.886-1.48 1.156v.046c.854.18 1.515.585 1.95 1.215s.658 1.426.658 2.387c0 .538-.104 1.05-.3 1.528l.025.027zm-2.776-3.45c-.41-.375-.986-.558-1.73-.558H8.985v4.368h4.334c.74 0 1.32-.192 1.73-.58.41-.385.62-.934.62-1.64-.007-.69-.21-1.224-.62-1.59h-.017zm-.6-2.823c.396-.336.59-.817.59-1.444 0-.704-.175-1.204-.53-1.49-.352-.285-.86-.433-1.528-.433h-4v3.863h4c.583 0 1.08-.17 1.464-.496z">
		</path>
	</symbol>
	<symbol id="jinja" role="img" viewBox="0 0 24 24" xmlns="http://www.w3.org/2000/svg">
		<title>Jinja</title>
		<path
			d="M23.718.668l-.08.04s-4.563 2.174-8.244 2.651c-1.854.24-4.554.481-6.964.62a65.472 65.472 0 0 1-3.254.117c-.917.005-1.63-.032-1.95-.11a20.19 20.19 0 0 1-2.4-.732l-.252-.1.346 1.172-.92.81.248.436.44.033 1.052.131.162.514.635.057.318 1.078.092.006s1.338.115 1.762.115c.365 0 .93-.04 1.072-.05l.024.396.287.054v.315l-.8.71.157.028c-.14.01-.227.018-.5.03-.43.017-.934.02-1.203-.018-.586-.086-.71-.086-.71-.086H2.98l-.122.13-.046.446h.152l.055 1.111 2.933-.113-.205 3.682-.02.347-2.242-.127-.02-.761h.538l.057-.42.464-.106.223-.312-2.111-.51-1.705.506.465.388h.166l.025.334.494.028v.763l-.611.157.19.404.105.068v.825h.343v3.296l-.566.086.098 1.247.334.056-.055 2.342 1.803.033-.32-2.303 1.982-.048-.14 1.087-.25 1.032 2.609.033.027-2.28 1.322-.12-.072 1.294-.063.99h1.633l-.053-2.3.176.027.067-1.392h-.243l-.058-.34-.131-1.29.049-1.364h.295v-1.182l-.364.027.04-.806.43-.043.023-.352.172-.025.51-.389-1.827-.375-1.71.379.286.469.239-.02.054-.004.034.442.41-.02.004.674-1.526-.035.053-.877.059-.926v-1.213l.048-1.152 3.485-.178 4.155-.24.033.674-.152 1.949-.063 1.693-1.32-.023-.006-1.018.574-.021.028-.373.27-.041-.012-.057.152-.01.29-.388-2.01-.471-1.986.426.258.45.14-.01v.089h.246v.402l.524.008-.006.856h-.527l-.014.505.187.022-.021.978.393.02-.044 3.615-.523.108.016.423h.176v.985h.289l-.07 1.205-.112 1.314 2.17.057-.07-1.172-.138-.848-.022-.593 1.325-.024-.04 1.002-.009 1.33 1.033.082 1.252-.05.533-.157-.25-.76-.053-1-.08-.583 1.233-.045-.057.742-.006 1.515.738.069.631-.016.416-.13-.187-1.424-.049-.862.25-.027.006-.895.08-.017-.027-.43h-.303l-.049-.527-.023-2.692.222-.006v-.902l.096.014v-.461l-.334-.027.006-.836.57-.051-.033-.362.26-.021-.024-.117.58-.29-2.056-.413-1.88.38.231.432.223-.02.014.077h.203l.011.426.547-.006.035.773-1.67-.012-.212-1.457-.178-.826-.145-1.469.075-.746 3.847-.293.012-1.316.201-.05-.023-.38-.239-.138h-.037l-.357.05-.793.116a62.157 62.157 0 0 1-1.625.216l-.19.02-.015-.178-.785-.41.006-.275.271-.008.02-.672c.09-.006.352-.024.771-.062.484-.045 1.04-.105 1.361-.18.597-.14 1.452-.28 1.452-.28l.076-.013.408-1.108.805-.234.066-.184 1.78-.492.306-.252-.717-1.564.047-.236.344-.18.297-.906-.252-.223zM14.825 6.73l-.01.526.407.017-.016.32-.789.518-.086.258-1.86.09.01-.184.112-.18.01-.154.001-.228.067-.156.031-.16v-.092l.08-.323zm-5.18.461l-.043.264.199.234-.014.387.176.27-.047.328.025.035-1.847.074.02-.152-.653-.354-.022-.345.29-.014.029-.598zm4.014 8.5l1.258.082-.05 1.938.183 1.54-1.34-.046-.05-3.514zm-10.225.084l2.16.112L5.4 17.17v1.219l.137.523-2.09.098zm15.376.01v3.256l-1.29.094-.052-1.723-.158-1.592zm-11.494.076l1.538.006.017 2.996-1.43.026-.076-.928-.006-1.047z" />
	</symbol>
	<symbol id="git" aria-labelledby="simpleicons-git-icon" role="img" viewBox="0 0 24 24"
		xmlns="http://www.w3.org/2000/svg">
		<title id="simpleicons-git-icon">Git icon</title>
		<path
			d="M23.546 10.93L13.067.452c-.604-.603-1.582-.603-2.188 0L8.708 2.627l2.76 2.76c.645-.215 1.379-.07 1.889.441.516.515.658 1.258.438 1.9l2.658 2.66c.645-.223 1.387-.078 1.9.435.721.72.721 1.884 0 2.604-.719.719-1.881.719-2.6 0-.539-.541-.674-1.337-.404-1.996L12.86 8.955v6.525c.176.086.342.203.488.348.713.721.713 1.883 0 2.6-.719.721-1.889.721-2.609 0-.719-.719-.719-1.879 0-2.598.182-.18.387-.316.605-.406V8.835c-.217-.091-.424-.222-.6-.401-.545-.545-.676-1.342-.396-2.009L7.636 3.7.45 10.881c-.6.605-.6 1.584 0 2.189l10.48 10.477c.604.604 1.582.604 2.186 0l10.43-10.43c.605-.603.605-1.582 0-2.187">
		</path>
	</symbol>
	<symbol id="flag-de" xmlns="http://www.w3.org/2000/svg" xmlns:xlink="http://www.w3.org/1999/xlink" width="60px"
	height="60px" viewBox="0 0 64 64" aria-hidden="true" role="img" class="iconify iconify--emojione"
	preserveAspectRatio="xMidYMid meet">
	<path d="M31.9 2C18.8 2 7.7 10.4 3.6 22h56.6C56.1 10.4 45 2 31.9 2z" fill="#3e4347" />
	<path d="M31.9 62c13.1 0 24.2-8.3 28.3-20H3.6c4.1 11.7 15.2 20 28.3 20z" fill="#ffe62e" />
	<path d="M3.6 22c-1.1 3.1-1.7 6.5-1.7 10s.6 6.9 1.7 10h56.6c1.1-3.1 1.7-6.5 1.7-10s-.6-6.9-1.7-10H3.6"
		fill="#ed4c5c" />
	</symbol>
	<symbol id="flag-cz" xmlns="http://www.w3.org/2000/svg" xmlns:xlink="http://www.w3.org/1999/xlink" height="60px"
	width="60px" version="1.1" viewBox="0 0 473.719 473.719" xml:space="preserve">
	<path style="fill:#14477D;"
		d="M0.021,236.842c0-40.593,10.209-78.8,28.204-112.195l445.473,112.195L33.479,358.274  C12.234,322.766,0.021,281.227,0.021,236.842z" />
	<path style="fill:#EFECEC;"
		d="M334.956,236.842h138.742C473.697,106.032,367.662,0,236.855,0  C302.257,0,334.956,118.421,334.956,236.842z" />
	<path style="fill:#D32027;"
		d="M236.855,473.681c-1.399,0-2.764-0.022-4.147-0.037c1.384,0.03,2.76,0.075,4.147,0.075  c130.807,0,236.842-106.032,236.842-236.838H334.956C334.952,355.286,302.249,473.681,236.855,473.681z" />
	<path style="fill:#F3F4F5;"
		d="M28.228,124.647l208.631,112.195h98.097C334.956,118.421,302.257,0,236.855,0  C146.646,0,68.215,50.432,28.228,124.647z" />
	<path style="fill:#DB2F2A;"
		d="M334.956,236.88h-98.097L27.757,348.195c39.232,73.55,116.14,123.926,204.951,125.451  c1.384,0.015,2.749,0.037,4.147,0.037C302.249,473.681,334.952,355.286,334.956,236.88z" />
	</symbol>
	<symbol id="flag-sk" xmlns="http://www.w3.org/2000/svg" xmlns:xlink="http://www.w3.org/1999/xlink" width="60px" height="60px" viewBox="0 0 64 64" aria-hidden="true" role="img" class="iconify iconify--emojione" preserveAspectRatio="xMidYMid meet">
		<path d="M32 2C18.9 2 7.8 10.4 3.7 22h56.6C56.2 10.4 45.1 2 32 2z" fill="#f9f9f9">
		</path>
		<path d="M32 62c13.1 0 24.2-8.3 28.3-20H3.7C7.8 53.7 18.9 62 32 62z" fill="#ed4c5c">
		</path>
		<path d="M3.7 22C2.6 25.1 2 28.5 2 32s.6 6.9 1.7 10h56.6c1.1-3.1 1.7-6.5 1.7-10s-.6-6.9-1.7-10H3.7z" fill="#428bc1">
		</path>
		<path d="M33.9 19H14v13.8c0 9.2 9.6 12 10 12.2c.4-.2 10-3 10-12.2V19h-.1" fill="#f9f9f9">
		</path>
		<path d="M16 21v11.9c0 5.6 4.3 8.6 8 10.1c3.7-1.5 8-4.5 8-10.1V21H16z" fill="#ed4c5c">
		</path>
		<g fill="#f9f9f9">
		<path d="M23 23h2v14h-2z">
		</path>
		<path d="M19 29h10v2H19z">
		</path>
		<path d="M21 25h6v2h-6z">
		</path>
		</g>
		<path d="M24 35c-1.3 0-2.5.6-3.2 1.6c-.5-.4-1.1-.6-1.8-.6c-.8 0-1.6.3-2.1.9c1.4 3.1 4.4 5 7.1 6.1c2.7-1.1 5.7-3 7.1-6.1c-.5-.6-1.3-.9-2.1-.9c-.7 0-1.3.2-1.8.6c-.7-1-1.9-1.6-3.2-1.6" fill="#428bc1">
		</path>
	</symbol>

	<symbol id="flag-en" xmlns="http://www.w3.org/2000/svg" xmlns:xlink="http://www.w3.org/1999/xlink" height="60px"
	width="60px" version="1.1" viewBox="0 0 473.68 473.68" xml:space="preserve">
	<g>
		<path style="fill:#29337A;" d="M41.712,102.641c-15.273,22.168-26.88,47.059-33.918,73.812h107.734L41.712,102.641z" />
		<path style="fill:#29337A;" d="M170.511,9.48c-27.288,7.947-52.56,20.628-74.814,37.168l74.814,74.814V9.48z" />
		<path style="fill:#29337A;"
			d="M101.261,430.982c20.874,14.607,44.195,25.915,69.25,33.211v-102.45L101.261,430.982z" />
		<path style="fill:#29337A;" d="M10.512,306.771c7.831,25.366,19.831,48.899,35.167,69.833l69.833-69.833H10.512z" />
	</g>
	<g>
		<path style="fill:#FFFFFF;"
			d="M45.619,97.144c-1.324,1.81-2.629,3.646-3.908,5.501l73.816,73.812H7.793   c-1.746,6.645-3.171,13.418-4.345,20.284h141.776L45.619,97.144z" />
		<path style="fill:#FFFFFF;"
			d="M95.767,427.074c1.802,1.343,3.654,2.621,5.493,3.908l69.25-69.242v102.45   c6.653,1.945,13.41,3.624,20.284,4.974V332.05L95.767,427.074z" />
		<path style="fill:#FFFFFF;"
			d="M5.25,286.487c1.47,6.873,3.205,13.642,5.258,20.284h105.001l-69.833,69.833   c7.595,10.377,16.017,20.115,25.168,29.12L190.08,286.487H5.25L5.25,286.487z" />
		<path style="fill:#FFFFFF;"
			d="M170.511,9.48v111.982l-74.815-74.81c-10.314,7.67-19.955,16.185-28.888,25.403l123.983,123.983   V4.506C183.921,5.864,177.164,7.547,170.511,9.48z" />
	</g>
	<g>
		<polygon style="fill:#D32030;" points="170.511,306.056 169.8,306.771 170.511,306.771  " />
		<polygon style="fill:#D32030;" points="190.084,286.487 190.794,286.487 190.794,285.773  " />
		<polygon style="fill:#D32030;" points="281.229,196.737 280.545,196.737 280.545,197.425  " />
		<polygon style="fill:#D32030;" points="171.21,176.457 170.511,175.754 170.511,176.457  " />
		<polygon style="fill:#D32030;" points="190.794,196.037 190.794,196.737 191.494,196.737  " />
	</g>
	<g>
		<path style="fill:#252F6C;"
			d="M300.825,411.764v53.091c25.381-7.105,49.045-18.305,70.211-32.897l-57.526-57.526   C308.913,390.583,307.231,398.933,300.825,411.764z" />
		<path style="fill:#252F6C;"
			d="M313.812,108.471l62.799-62.799C354.05,29.15,328.456,16.559,300.824,8.818v54.538   C308.21,78.146,308.831,89.384,313.812,108.471z" />
		<path style="fill:#252F6C;"
			d="M427.029,377.984c15.815-21.275,28.141-45.29,36.147-71.213h-107.36L427.029,377.984z" />
		<path style="fill:#252F6C;" d="M465.887,176.457c-7.188-27.318-19.143-52.676-34.898-75.192l-75.2,75.192H465.887z" />
	</g>
	<g>
		<path style="fill:#E7E7E7;"
			d="M327.638,290.5l16.275,16.275l77.903,77.903c1.769-2.214,3.526-4.42,5.217-6.69l-71.213-71.213   h107.36c2.046-6.638,3.784-13.41,5.25-20.284H329.16C328.932,289.367,327.911,287.643,327.638,290.5z" />
		<path style="fill:#E7E7E7;"
			d="M311.352,120.348l70.607-70.615c-1.769-1.372-3.541-2.737-5.348-4.061l-62.799,62.799   C314.463,110.954,310.746,117.805,311.352,120.348z" />
		<path style="fill:#E7E7E7;"
			d="M300.825,58.992V8.814c-6.645-1.862-13.41-3.44-20.284-4.727v24.476   C288.088,36.745,294.853,47.022,300.825,58.992z" />
		<path style="fill:#E7E7E7;"
			d="M326.041,196.737h144.195c-1.171-6.866-2.599-13.635-4.345-20.284H355.793l75.2-75.192   C423.6,90.7,415.384,80.768,406.409,71.565l-84.702,84.694C323.988,171.622,325.009,180.544,326.041,196.737z" />
		<path style="fill:#E7E7E7;"
			d="M310.088,371.002l60.952,60.959c10.138-6.982,19.685-14.753,28.593-23.189l-80.173-80.177   C316.901,343.423,313.865,357.745,310.088,371.002z" />
		<path style="fill:#E7E7E7;"
			d="M280.545,442.301v27.28c6.873-1.279,13.635-2.865,20.284-4.727v-53.091   C294.853,423.738,288.088,434.13,280.545,442.301z" />
	</g>
	<path style="fill:#D71F28;"
		d="M321.707,156.259l84.694-84.694c-7.625-7.831-15.8-15.119-24.446-21.832l-66.55,66.561  C318.363,128.657,319.706,142.808,321.707,156.259z" />
	<g>
		<path style="fill:#D32030;"
			d="M225.019,0.292C228.965,0.101,232.899,0,236.836,0C232.876,0,228.935,0.101,225.019,0.292z" />
		<path style="fill:#D32030;"
			d="M236.836,473.68c-3.938,0-7.872-0.108-11.81-0.299C228.942,473.579,232.876,473.68,236.836,473.68z" />
		<path style="fill:#D32030;"
			d="M236.836,473.68c14.943,0,29.535-1.447,43.708-4.099v-27.28   C268.103,455.786,253.549,473.68,236.836,473.68z" />
	</g>
	<g>
		<path style="fill:#D71F28;"
			d="M470.232,196.737H327.911c1.885,29.704,1.657,60.249-0.681,89.75h141.2   c3.418-16.017,5.25-32.613,5.25-49.643C473.68,223.164,472.461,209.784,470.232,196.737z" />
		<path style="fill:#D71F28;"
			d="M327.638,290.5c-1.316,13.994-5.901,24.898-8.182,38.099l80.173,80.173   c7.932-7.517,15.347-15.557,22.183-24.094l-77.9-77.907L327.638,290.5z" />
	</g>
	<path style="fill:#D32030;"
		d="M280.545,30.324V4.091C266.376,1.447,251.784,0,236.836,0C253.549,0,268.103,16.843,280.545,30.324z" />
	<g>
		<path style="fill:#29337A;" d="M300.825,422.007c6.406-12.834,11.899-27.609,16.499-43.757l-16.499-16.499V422.007z" />
		<path style="fill:#29337A;"
			d="M319.377,102.906c-4.989-19.087-11.166-36.439-18.552-51.229v69.773L319.377,102.906z" />
	</g>
	<g>
		<path style="fill:#FFFFFF;" d="M332.234,295.092c0.269-2.857,0.512-5.725,0.744-8.605h-9.349L332.234,295.092z" />
		<path style="fill:#FFFFFF;"
			d="M300.825,121.451V51.674c-5.976-11.97-12.737-22.254-20.284-30.429v129.906l40.735-40.735   c-0.613-2.543-1.257-5.034-1.9-7.517L300.825,121.451z" />
		<path style="fill:#FFFFFF;" d="M281.229,196.737h52.429c-1.028-16.192-2.666-32.123-4.944-47.482L281.229,196.737z" />
		<path style="fill:#FFFFFF;"
			d="M280.545,452.432c7.547-8.182,14.308-18.459,20.284-30.429v-60.256l16.499,16.499   c3.784-13.264,6.959-27.434,9.525-42.261l-46.307-46.304L280.545,452.432L280.545,452.432z" />
	</g>
	<path style="fill:#E51D35;"
		d="M280.545,452.432V289.681l46.304,46.307c2.277-13.205,4.069-26.899,5.381-40.896l-8.605-8.605h9.349  c2.337-29.502,2.565-60.047,0.681-89.75h-52.429l47.482-47.482c-2.001-13.455-4.476-26.469-7.434-38.836l-40.728,40.735V21.248  C268.103,7.763,253.549,0,236.836,0c-3.938,0-7.872,0.101-11.817,0.292c-11.649,0.583-23.073,2.016-34.225,4.215v191.531  L66.808,72.055c-7.618,7.861-14.704,16.237-21.189,25.089l79.313,79.313l20.291,20.284H3.448C1.227,209.784,0,223.164,0,236.844  c0,17.034,1.84,33.626,5.25,49.643h184.834L70.847,405.724c7.808,7.67,16.121,14.813,24.921,21.349l95.023-95.023v137.116  c11.151,2.199,22.583,3.631,34.232,4.215c3.938,0.191,7.872,0.299,11.81,0.299C253.549,473.68,268.103,465.917,280.545,452.432z" />
	</symbol>

</svg>