<svg width="474" height="123" viewBox="0 0 474 123" fill="none" xmlns="http://www.w3.org/2000/svg">
<path d="M59.2098 68.943C55.4155 70.824 51.2512 71.8401 47.017 71.9181C40.8653 71.9181 35.9938 69.9167 32.9336 66.1269C29.5071 61.8858 28.4567 55.6459 29.9783 48.5687C33.1123 34.176 44.2945 24.8759 58.4688 24.8759C68.1634 24.8759 75.5528 30.1647 78.1476 32.0185L80.1376 33.4407L83.2745 18.4773L82.4313 17.8697C80.7878 16.6888 71.925 10.7926 58.696 10.7926C34.7051 10.7926 17.5016 24.4076 12.6757 47.2176C10.2884 58.6128 11.9973 68.2959 17.621 75.2198C23.327 82.2487 32.962 86.1181 44.746 86.1181C54.3696 86.1181 65.1316 82.8903 74.2783 77.2609L74.8631 76.9004L81.7643 44.3617H64.3141L59.2098 68.943Z" fill="#393664"/>
<path d="M159.225 22.233C153.241 14.8549 143.606 10.7925 132.092 10.7925C109.401 10.7925 92.3312 24.7482 87.5449 47.2147L87.5421 47.2232C85.2937 58.1527 87.1617 67.6798 92.9472 74.7769C98.9088 82.0897 108.461 86.118 119.845 86.118C142.595 86.118 159.708 72.1168 164.503 49.5766C166.785 38.7578 164.96 29.3017 159.225 22.233ZM146.973 48.126C143.987 62.357 133.358 71.9181 120.524 71.9181C114.934 71.9181 110.466 70.0445 107.601 66.4959C104.257 62.3569 103.346 56.1938 104.967 48.6794V48.6709C107.973 34.4399 118.602 24.8759 131.413 24.8759C137.014 24.8759 141.488 26.7523 144.353 30.3037C147.697 34.4485 148.602 40.6088 146.973 48.126Z" fill="#393664"/>
<path d="M183.004 80.8271L176.812 111.258H157.936L179.154 10.9778H197.654C197.654 10.9778 208.42 10.8047 219.312 10.8047C234.7 10.8047 244.9 21.6969 244.9 37.7776C244.9 60.4274 229.17 85.8425 202.716 85.8425C193.55 85.8425 187.501 83.4192 183.004 80.8271ZM187.771 58.5196C187.252 61.1118 186.603 63.0705 186.256 65.8358C191.175 69.3369 197.279 70.7484 203.235 69.7618C216.027 67.5158 225.885 54.3735 225.885 40.8891C225.885 32.9353 221.908 27.4048 212.916 27.4048H194.621C191.323 42.943 190.179 48.2175 187.771 58.5196H187.771Z" fill="#393664"/>
<path d="M296.728 84.804L299.84 70.9735C294.651 80.1348 286.528 86.3619 274.598 86.3619C259.209 86.3619 249.183 75.4697 249.183 59.389C249.183 34.8394 266.644 10.9779 294.478 10.9779C312.632 10.9779 323.524 20.1432 328.02 24.4622L315.228 84.8042L296.728 84.804ZM268.198 56.2775C268.198 64.0582 272.174 69.5887 281.167 69.5887C297.248 69.5887 304.163 51.7812 306.582 38.812L307.967 31.3774C304.509 28.7855 300.186 27.0586 293.617 27.0586C279.263 27.0586 268.198 40.8891 268.198 56.2775Z" fill="#393664"/>
<path d="M367.625 26.0201C360.018 26.0201 355.349 28.4391 355.349 32.243C355.349 42.1008 387.506 39.6775 388.198 61.1157C388.717 76.1579 376.094 86.3619 356.907 86.3619C345.841 86.3619 333.781 81.9635 323.927 75.0483L327.622 57.5723C335.723 65.3731 349.645 70.2811 356.733 70.2811C364.514 70.2811 369.352 67.3428 369.352 62.6735C369.352 51.9544 337.195 54.5466 336.503 33.6277C335.983 19.7972 347.741 10.9779 366.414 10.9779C375.233 10.9779 386.818 13.5701 393.733 17.2008L390.33 32.4332C384.127 28.6094 373.848 26.0201 367.625 26.0201Z" fill="#393664"/>
<path d="M436.265 26.0201C428.657 26.0201 423.988 28.4391 423.988 32.243C423.988 42.1008 456.145 39.6775 456.838 61.1157C457.357 76.1579 444.734 86.3619 425.546 86.3619C414.481 86.3619 402.42 81.9635 392.566 75.0483L396.261 57.5723C404.362 65.3731 418.284 70.2811 425.373 70.2811C433.154 70.2811 437.992 67.3428 437.992 62.6735C437.992 51.9544 405.834 54.5466 405.142 33.6277C404.623 19.7972 416.38 10.9779 435.053 10.9779C443.873 10.9779 455.457 13.5701 462.372 17.2008L458.969 32.4332C452.767 28.6094 442.488 26.0201 436.265 26.0201Z" fill="#393664"/>
</svg>
