<?xml version="1.0" encoding="utf-8"?>
<!-- Generator: Adobe Illustrator 22.0.1, SVG Export Plug-In . SVG Version: 6.00 Build 0)  -->
<svg version="1.1" xmlns="http://www.w3.org/2000/svg" xmlns:xlink="http://www.w3.org/1999/xlink" x="0px" y="0px" width="200px"
	 height="75px" viewBox="0 0 200 75" enable-background="new 0 0 200 75" xml:space="preserve">
<g id="mrizka">
</g>
<g id="Vrstva_2">
</g>
<g id="Vrstva_3">
</g>
<g id="Vrstva_4">
	<g>
		<g>
			<g>
				<defs>
					<rect id="SVGID_1_" y="0" width="200" height="75"/>
				</defs>
				<clipPath id="SVGID_2_">
					<use xlink:href="#SVGID_1_"  overflow="visible"/>
				</clipPath>
				<path clip-path="url(#SVGID_2_)" fill="#FFDA3E" d="M2.1,74c-0.5,0-0.9-0.1-1.3-0.5c-0.9-0.7-1.1-2-0.4-3l0.1-0.1
					c0.7-0.9,2-1.1,3-0.4c0.9,0.7,1.1,2,0.4,3l-0.1,0.1C3.3,73.7,2.7,74,2.1,74L2.1,74z"/>
				<path clip-path="url(#SVGID_2_)" fill="#FFDA3E" d="M51.1,11.3c-0.5,0-0.9-0.1-1.3-0.4c-0.9-0.7-1.1-2-0.4-3l0.1-0.2
					c0.7-0.9,2-1.1,3-0.4c0.9,0.7,1.1,2,0.4,3l-0.1,0.2C52.3,11,51.7,11.3,51.1,11.3L51.1,11.3z M45.6,18.3c-0.5,0-0.9-0.1-1.3-0.5
					c-0.9-0.7-1.1-2-0.4-3l0.1-0.2c0.7-0.9,2-1.1,3-0.4c0.9,0.7,1.1,2,0.4,3l-0.1,0.2C46.9,18,46.3,18.3,45.6,18.3L45.6,18.3z
					 M40.2,25.2c-0.5,0-0.9-0.1-1.3-0.4c-0.9-0.7-1.1-2-0.4-3l0.1-0.2c0.7-0.9,2-1.1,3-0.4c0.9,0.7,1.1,2,0.4,3l-0.1,0.2
					C41.4,25,40.8,25.2,40.2,25.2L40.2,25.2z M34.7,32.2c-0.5,0-0.9-0.1-1.3-0.5c-0.9-0.7-1.1-2-0.4-3l0.1-0.2c0.7-0.9,2-1.1,3-0.4
					c0.9,0.7,1.1,2,0.4,3l-0.1,0.2C36,31.9,35.4,32.2,34.7,32.2L34.7,32.2z M12.9,60.1c-0.5,0-0.9-0.1-1.3-0.4c-0.9-0.7-1.1-2-0.4-3
					l0.1-0.2c0.7-0.9,2-1.1,3-0.4c0.9,0.7,1.1,2,0.4,3l-0.1,0.2C14.2,59.8,13.6,60.1,12.9,60.1L12.9,60.1z M7.5,67.1
					c-0.5,0-0.9-0.1-1.3-0.5c-0.9-0.7-1.1-2-0.4-3L6,63.5c0.7-0.9,2-1.1,3-0.4c0.9,0.7,1.1,2,0.4,3l-0.1,0.2
					C8.7,66.8,8.1,67.1,7.5,67.1L7.5,67.1z"/>
				<path clip-path="url(#SVGID_2_)" fill="#FFDA3E" d="M56.5,4.3c-0.5,0-0.9-0.1-1.3-0.5c-0.9-0.7-1.1-2-0.4-3L55,0.8
					c0.7-0.9,2-1.1,3-0.4c0.9,0.7,1.1,2,0.4,3l-0.1,0.1C57.8,4,57.2,4.3,56.5,4.3L56.5,4.3z"/>
			</g>
			<path fill="#74B731" d="M15,74c-0.5,0-0.9-0.1-1.3-0.5c-0.9-0.7-1.1-2-0.4-3l0.1-0.1c0.7-0.9,2-1.1,3-0.4c0.9,0.7,1.1,2,0.4,3
				l-0.1,0.1C16.2,73.7,15.6,74,15,74L15,74z"/>
			<g>
				<defs>
					<rect id="SVGID_3_" y="0" width="200" height="75"/>
				</defs>
				<clipPath id="SVGID_4_">
					<use xlink:href="#SVGID_3_"  overflow="visible"/>
				</clipPath>
				<path clip-path="url(#SVGID_4_)" fill="#74B731" d="M64,11.3c-0.5,0-0.9-0.1-1.3-0.5c-0.9-0.7-1.1-2-0.4-3l0.1-0.2
					c0.7-0.9,2-1.1,3-0.4c0.9,0.7,1.1,2,0.4,3l-0.1,0.2C65.2,11,64.6,11.3,64,11.3L64,11.3z M58.5,18.3c-0.5,0-0.9-0.1-1.3-0.5
					c-0.9-0.7-1.1-2-0.4-3l0.1-0.2c0.7-0.9,2-1.1,3-0.4c0.9,0.7,1.1,2,0.4,3l-0.1,0.2C59.8,18,59.2,18.3,58.5,18.3L58.5,18.3z
					 M53.1,25.2c-0.5,0-0.9-0.1-1.3-0.5c-0.9-0.7-1.1-2-0.4-3l0.1-0.2c0.7-0.9,2-1.1,3-0.4c0.9,0.7,1.1,2,0.4,3l-0.1,0.2
					C54.3,25,53.7,25.2,53.1,25.2L53.1,25.2z M47.6,32.2c-0.5,0-0.9-0.1-1.3-0.5c-0.9-0.7-1.1-2-0.4-3l0.1-0.2c0.7-0.9,2-1.1,3-0.4
					c0.9,0.7,1.1,2,0.4,3l-0.1,0.2C48.9,31.9,48.3,32.2,47.6,32.2L47.6,32.2z M25.8,60.1c-0.5,0-0.9-0.1-1.3-0.4
					c-0.9-0.7-1.1-2-0.4-3l0.1-0.2c0.7-0.9,2-1.1,3-0.4c0.9,0.7,1.1,2,0.4,3l-0.1,0.2C27.1,59.8,26.5,60.1,25.8,60.1L25.8,60.1z
					 M20.4,67.1c-0.5,0-0.9-0.1-1.3-0.5c-0.9-0.7-1.1-2-0.4-3l0.1-0.2c0.7-0.9,2-1.1,3-0.4c0.9,0.7,1.1,2,0.4,3L22,66.3
					C21.6,66.8,21,67.1,20.4,67.1L20.4,67.1z"/>
				<path clip-path="url(#SVGID_4_)" fill="#74B731" d="M69.4,4.3c-0.5,0-0.9-0.1-1.3-0.5c-0.9-0.7-1.1-2-0.4-3l0.1-0.1
					c0.7-0.9,2-1.1,3-0.4c0.9,0.7,1.1,2,0.4,3l-0.1,0.1C70.7,4,70.1,4.3,69.4,4.3L69.4,4.3z"/>
			</g>
			<path fill="#8F441A" d="M27.9,74c-0.5,0-0.9-0.1-1.3-0.5c-0.9-0.7-1.1-2-0.4-3l0.1-0.1c0.7-0.9,2-1.1,3-0.4c0.9,0.7,1.1,2,0.4,3
				l-0.1,0.1C29.1,73.7,28.5,74,27.9,74L27.9,74z"/>
			<g>
				<defs>
					<rect id="SVGID_5_" y="0" width="200" height="75"/>
				</defs>
				<clipPath id="SVGID_6_">
					<use xlink:href="#SVGID_5_"  overflow="visible"/>
				</clipPath>
				<path clip-path="url(#SVGID_6_)" fill="#8F441A" d="M76.9,11.3c-0.5,0-0.9-0.1-1.3-0.4c-0.9-0.7-1.1-2-0.4-3l0.1-0.2
					c0.7-0.9,2-1.1,3-0.4c0.9,0.7,1.1,2,0.4,3l-0.1,0.2C78.1,11,77.5,11.3,76.9,11.3L76.9,11.3z M71.4,18.3c-0.5,0-0.9-0.1-1.3-0.5
					c-0.9-0.7-1.1-2-0.4-3l0.1-0.2c0.7-0.9,2-1.1,3-0.4c0.9,0.7,1.1,2,0.4,3l-0.1,0.2C72.7,18,72.1,18.3,71.4,18.3L71.4,18.3z
					 M66,25.2c-0.5,0-0.9-0.1-1.3-0.4c-0.9-0.7-1.1-2-0.4-3l0.1-0.2c0.7-0.9,2-1.1,3-0.4c0.9,0.7,1.1,2,0.4,3l-0.1,0.2
					C67.2,25,66.6,25.2,66,25.2L66,25.2z M60.5,32.2c-0.5,0-0.9-0.1-1.3-0.5c-0.9-0.7-1.1-2-0.4-3l0.1-0.2c0.7-0.9,2-1.1,3-0.4
					c0.9,0.7,1.1,2,0.4,3l-0.1,0.2C61.8,31.9,61.2,32.2,60.5,32.2L60.5,32.2z M38.7,60.1c-0.5,0-0.9-0.1-1.3-0.4
					c-0.9-0.7-1.1-2-0.4-3l0.1-0.2c0.7-0.9,2-1.1,3-0.4c0.9,0.7,1.1,2,0.4,3l-0.1,0.2C40,59.8,39.4,60.1,38.7,60.1L38.7,60.1z
					 M33.3,67.1c-0.5,0-0.9-0.1-1.3-0.5c-0.9-0.7-1.1-2-0.4-3l0.1-0.2c0.7-0.9,2-1.1,3-0.4c0.9,0.7,1.1,2,0.4,3l-0.1,0.2
					C34.5,66.8,33.9,67.1,33.3,67.1L33.3,67.1z"/>
				<path clip-path="url(#SVGID_6_)" fill="#8F441A" d="M82.3,4.3c-0.5,0-0.9-0.1-1.3-0.5c-0.9-0.7-1.1-2-0.4-3l0.1-0.1
					c0.7-0.9,2-1.1,3-0.4c0.9,0.7,1.1,2,0.4,3L84,3.5C83.6,4,83,4.3,82.3,4.3L82.3,4.3z"/>
			</g>
			<path fill="#2B2422" d="M100.9,10.4c-0.5,0-0.8,0.1-1.1,0.3c-0.3,0.2-0.4,0.4-0.4,0.8c0,0.4,0.2,0.6,0.6,0.9
				c0.4,0.2,1.1,0.5,2.1,0.7c1.1,0.3,2.1,0.7,2.8,1c0.8,0.3,1.4,0.8,2,1.5c0.5,0.7,0.8,1.5,0.8,2.6c0,1.6-0.6,2.9-1.9,3.8
				c-1.2,0.9-2.9,1.4-4.9,1.4c-1.4,0-2.7-0.2-3.9-0.6c-1.2-0.4-2.3-1-3.3-1.7l1.7-3.4c0.9,0.6,1.9,1.1,2.8,1.5
				c1,0.3,1.9,0.5,2.8,0.5c0.5,0,0.9-0.1,1.2-0.3c0.3-0.2,0.5-0.4,0.5-0.7c0-0.4-0.2-0.7-0.7-0.9c-0.4-0.2-1.1-0.5-2.1-0.7
				c-1.1-0.3-2-0.7-2.8-1c-0.7-0.3-1.4-0.8-1.9-1.5c-0.5-0.7-0.8-1.5-0.8-2.5c0-1.6,0.6-2.9,1.8-3.8c1.2-0.9,2.8-1.4,4.7-1.4
				c1.2,0,2.3,0.2,3.4,0.5c1.1,0.3,2.2,0.8,3.2,1.4l-1.8,3.4C103.9,11,102.2,10.4,100.9,10.4L100.9,10.4z"/>
			<path fill="#2B2422" d="M118.3,0.2l4.3,1.7l-4.3,3.4L114.7,5L118.3,0.2L118.3,0.2z M118.5,19.1c0.6-0.4,1-0.9,1.1-1.5v-1.4h-3.1
				c-1.5,0-2.2,0.6-2.2,1.7c0,0.6,0.2,1,0.6,1.3c0.4,0.3,0.9,0.5,1.6,0.5C117.2,19.7,117.9,19.5,118.5,19.1L118.5,19.1z M122.9,8.3
				c1.2,1,1.8,2.4,1.9,4.3V23h-5.2v-1.8c-1.1,1.4-2.7,2-4.8,2c-1.7,0-3-0.5-4-1.4c-1-0.9-1.5-2.1-1.5-3.6c0-1.5,0.5-2.7,1.6-3.6
				c1.1-0.8,2.6-1.3,4.5-1.3h4.2v-0.2c0-0.8-0.3-1.4-0.8-1.8c-0.5-0.4-1.3-0.6-2.3-0.6c-0.7,0-1.4,0.1-2.3,0.3
				c-0.8,0.2-1.7,0.5-2.5,0.9l-1.4-3.5c1.3-0.6,2.5-1,3.7-1.3c1.2-0.3,2.4-0.4,3.7-0.4C119.9,6.8,121.7,7.3,122.9,8.3L122.9,8.3z"/>
			<polygon fill="#2B2422" points="127.4,7 141.4,7 141.4,10.2 133.7,19 141.7,19 141.7,23 127.2,23 127.2,19.8 134.8,11.1 
				127.4,11.1 127.4,7 			"/>
			<path fill="#2B2422" d="M144.5,7h5.2v16h-5.2V7L144.5,7z M148,0.2l4.3,1.7l-4.3,3.4L144.5,5L148,0.2L148,0.2z"/>
			<path fill="#2B2422" d="M179.2,8.5c1,1.1,1.6,2.6,1.6,4.5V23h-5.2v-8.6c0-0.9-0.2-1.6-0.7-2.1c-0.5-0.5-1.1-0.8-1.9-0.8
				c-0.9,0-1.7,0.4-2.2,1c-0.5,0.7-0.8,1.5-0.8,2.6V23h-5.2v-8.6c0-0.9-0.2-1.6-0.7-2.1c-0.5-0.5-1.1-0.8-1.9-0.8
				c-0.9,0-1.7,0.4-2.2,1c-0.5,0.7-0.8,1.5-0.8,2.6V23h-5.2V7h5.2v2.6c0.5-0.9,1.3-1.6,2.1-2.1c0.9-0.5,1.9-0.7,3-0.7
				c1.3,0,2.4,0.3,3.3,0.9c0.9,0.6,1.6,1.5,2,2.6c0.5-1.2,1.2-2.1,2.2-2.7c1-0.6,2.1-0.9,3.4-0.9C176.8,6.8,178.1,7.4,179.2,8.5
				L179.2,8.5z"/>
			<path fill="#2B2422" d="M194.3,13.6c0-0.9-0.3-1.7-0.8-2.2c-0.5-0.6-1.3-0.8-2.1-0.8c-0.8,0-1.5,0.3-2.1,0.8
				c-0.6,0.6-0.9,1.3-1.1,2.2H194.3L194.3,13.6z M197.3,9.1c1.4,1.5,2.1,3.6,2.1,6.3c0,0.4,0,0.7,0,0.9h-11.1
				c0.3,0.9,0.7,1.6,1.3,2.1c0.6,0.5,1.4,0.7,2.3,0.7c0.7,0,1.4-0.1,2-0.4c0.6-0.3,1.2-0.7,1.8-1.2l2.7,2.8c-0.8,0.9-1.8,1.6-3,2.1
				c-1.2,0.5-2.5,0.7-4,0.7c-1.7,0-3.2-0.3-4.5-1c-1.3-0.7-2.3-1.6-2.9-2.8c-0.7-1.2-1-2.6-1-4.3c0-1.6,0.3-3.1,1-4.3
				c0.7-1.3,1.7-2.2,2.9-2.9c1.3-0.7,2.7-1,4.4-1C193.9,6.8,195.9,7.6,197.3,9.1L197.3,9.1z"/>
			<path fill="#2B2422" d="M31.6,46.1c0.6-0.7,1-1.7,1-2.9c0-1.2-0.3-2.1-1-2.9c-0.6-0.7-1.5-1.1-2.5-1.1c-1,0-1.8,0.4-2.4,1.1
				c-0.6,0.7-0.9,1.7-0.9,2.9c0,1.2,0.3,2.1,0.9,2.9c0.6,0.7,1.4,1.1,2.4,1.1C30.1,47.2,31,46.8,31.6,46.1L31.6,46.1z M34.3,36.1
				c1.1,0.7,2,1.6,2.6,2.9c0.6,1.3,0.9,2.7,0.9,4.3c0,1.6-0.3,3-0.9,4.3c-0.6,1.2-1.5,2.2-2.6,2.8c-1.1,0.7-2.4,1-3.8,1
				c-1,0-1.9-0.2-2.7-0.6c-0.8-0.4-1.5-0.9-2.1-1.7v2.1h-5.2v-22h5.2v8c1.2-1.5,2.7-2.2,4.7-2.2C31.9,35.1,33.2,35.4,34.3,36.1
				L34.3,36.1z"/>
			<path fill="#2B2422" d="M56.1,35.3v16h-5.2v-2.6c-1.1,1.9-2.8,2.8-5.1,2.8c-1.7,0-3.1-0.6-4.1-1.7c-1-1.1-1.5-2.6-1.5-4.5V35.3
				h5.2v8.6c0,0.9,0.2,1.6,0.7,2.1c0.5,0.5,1.1,0.8,1.9,0.8c0.9,0,1.7-0.4,2.2-1c0.5-0.7,0.8-1.5,0.8-2.6v-7.9H56.1L56.1,35.3z"/>
			<path fill="#2B2422" d="M70,46.2c0.6-0.7,0.9-1.7,0.9-2.9c0-1.2-0.3-2.2-0.9-2.9c-0.6-0.7-1.5-1.1-2.5-1.1c-1,0-1.9,0.4-2.5,1.1
				c-0.6,0.7-1,1.7-1,2.9c0,1.2,0.3,2.1,1,2.9c0.6,0.7,1.5,1.1,2.5,1.1C68.6,47.3,69.4,47,70,46.2L70,46.2z M76.2,29.3v22h-5.2v-2.1
				c-0.5,0.7-1.2,1.3-2,1.7c-0.8,0.4-1.7,0.6-2.7,0.6c-1.5,0-2.8-0.3-3.9-1c-1.1-0.7-2-1.7-2.6-2.9c-0.6-1.3-0.9-2.7-0.9-4.3
				c0-1.6,0.3-3,0.9-4.3c0.6-1.2,1.5-2.2,2.6-2.8c1.1-0.7,2.4-1,3.8-1c1,0,1.9,0.2,2.8,0.6c0.8,0.4,1.5,1,2.1,1.7v-8H76.2L76.2,29.3
				z"/>
			<path fill="#2B2422" d="M85.3,40.4c-0.6,0.7-0.9,1.7-0.9,2.9c0,1.2,0.3,2.2,0.9,2.9c0.6,0.7,1.5,1.1,2.5,1.1c1,0,1.9-0.4,2.5-1.1
				c0.6-0.7,0.9-1.7,0.9-2.9c0-1.2-0.3-2.1-1-2.9c-0.6-0.7-1.5-1.1-2.5-1.1C86.7,39.3,85.9,39.7,85.3,40.4L85.3,40.4z M92.3,36.1
				c1.3,0.7,2.3,1.6,3.1,2.9c0.7,1.2,1.1,2.7,1.1,4.3c0,1.6-0.4,3.1-1.1,4.3c-0.7,1.2-1.7,2.2-3.1,2.9c-1.3,0.7-2.8,1-4.6,1
				c-1.7,0-3.3-0.3-4.6-1c-1.3-0.7-2.3-1.6-3.1-2.9c-0.7-1.2-1.1-2.7-1.1-4.3c0-1.6,0.4-3,1.1-4.3c0.7-1.2,1.7-2.2,3.1-2.9
				c1.3-0.7,2.8-1,4.6-1C89.5,35.1,91,35.4,92.3,36.1L92.3,36.1z"/>
			<path fill="#2B2422" d="M114.7,35.3v16h-5.2v-2.6c-1.1,1.9-2.8,2.8-5.1,2.8c-1.7,0-3.1-0.6-4.1-1.7c-1-1.1-1.5-2.6-1.5-4.5V35.3
				h5.2v8.6c0,0.9,0.2,1.6,0.7,2.1c0.5,0.5,1.1,0.8,1.9,0.8c0.9,0,1.7-0.4,2.2-1c0.5-0.7,0.8-1.5,0.8-2.6v-7.9H114.7L114.7,35.3z"/>
			<path fill="#2B2422" d="M125.9,39.4c-0.9,0-1.7,0.4-2.3,1.1c-0.6,0.7-0.9,1.7-0.9,2.8c0,1.2,0.3,2.1,0.9,2.8
				c0.6,0.7,1.4,1.1,2.3,1.1c1.5,0,2.5-0.6,3.1-1.8l3.9,2.2c-0.6,1.2-1.6,2.2-2.8,2.8c-1.3,0.7-2.7,1-4.4,1c-1.6,0-3.1-0.3-4.3-1
				c-1.2-0.7-2.2-1.6-2.9-2.8c-0.7-1.2-1-2.6-1-4.3c0-1.6,0.3-3.1,1-4.3c0.7-1.3,1.7-2.2,2.9-2.9c1.2-0.7,2.7-1,4.3-1
				c1.6,0,3,0.3,4.2,1c1.2,0.7,2.2,1.6,2.9,2.8l-3.8,2.2C128.3,40,127.2,39.4,125.9,39.4L125.9,39.4z"/>
			<path fill="#2B2422" d="M150,36.7c1.1,1.1,1.6,2.6,1.6,4.5v10.1h-5.2v-8.6c0-0.9-0.2-1.6-0.7-2.1c-0.5-0.5-1.1-0.8-2-0.8
				c-0.9,0-1.6,0.3-2.1,0.9c-0.6,0.6-0.9,1.3-1,2.2v8.5h-5.2v-16h5.2v2.6c0.6-0.9,1.3-1.6,2.2-2.1c0.9-0.5,1.9-0.7,3.1-0.7
				C147.5,35.1,148.9,35.6,150,36.7L150,36.7z"/>
			<path fill="#2B2422" d="M160.1,40.4c-0.6,0.7-0.9,1.7-0.9,2.9c0,1.2,0.3,2.2,0.9,2.9c0.6,0.7,1.5,1.1,2.5,1.1
				c1,0,1.9-0.4,2.5-1.1c0.6-0.7,0.9-1.7,0.9-2.9c0-1.2-0.3-2.1-1-2.9c-0.6-0.7-1.5-1.1-2.5-1.1C161.5,39.3,160.7,39.7,160.1,40.4
				L160.1,40.4z M167.1,36.1c1.3,0.7,2.3,1.6,3.1,2.9c0.7,1.2,1.1,2.7,1.1,4.3c0,1.6-0.4,3.1-1.1,4.3c-0.7,1.2-1.7,2.2-3.1,2.9
				c-1.3,0.7-2.8,1-4.6,1c-1.7,0-3.3-0.3-4.6-1c-1.3-0.7-2.3-1.6-3.1-2.9c-0.7-1.2-1.1-2.7-1.1-4.3c0-1.6,0.4-3,1.1-4.3
				c0.7-1.2,1.7-2.2,3.1-2.9c1.3-0.7,2.8-1,4.6-1C164.3,35.1,165.8,35.4,167.1,36.1L167.1,36.1z"/>
			<path fill="#2B2422" d="M179.5,38.7c-0.5,0-0.8,0.1-1.1,0.3c-0.3,0.2-0.4,0.4-0.4,0.8c0,0.4,0.2,0.6,0.6,0.9
				c0.4,0.2,1.1,0.5,2.1,0.7c1.1,0.3,2.1,0.7,2.8,1c0.8,0.3,1.4,0.8,2,1.5c0.5,0.7,0.8,1.5,0.8,2.6c0,1.6-0.6,2.9-1.9,3.8
				c-1.2,0.9-2.9,1.4-4.9,1.4c-1.4,0-2.7-0.2-3.9-0.6c-1.2-0.4-2.3-1-3.3-1.7l1.6-3.4c0.9,0.6,1.9,1.1,2.8,1.5
				c1,0.3,1.9,0.5,2.8,0.5c0.5,0,0.9-0.1,1.2-0.3c0.3-0.2,0.5-0.4,0.5-0.7c0-0.4-0.2-0.7-0.7-0.9c-0.4-0.2-1.1-0.5-2.1-0.7
				c-1.1-0.3-2-0.7-2.8-1c-0.7-0.3-1.4-0.8-1.9-1.5c-0.5-0.7-0.8-1.5-0.8-2.5c0-1.6,0.6-2.9,1.8-3.8c1.2-0.9,2.8-1.4,4.7-1.4
				c1.2,0,2.3,0.2,3.4,0.5c1.1,0.3,2.2,0.8,3.2,1.4l-1.8,3.4C182.5,39.2,180.8,38.7,179.5,38.7L179.5,38.7z"/>
			<path fill="#2B2422" d="M199.6,50.4c-0.6,0.3-1.3,0.6-2,0.8c-0.8,0.2-1.5,0.3-2.3,0.3c-1.6,0-2.8-0.5-3.8-1.4s-1.5-2.2-1.5-3.8
				v-6.9h-2.2V36h2.2v-4.4h5.2V36h4.1v3.5h-4.1v6c0,1.1,0.5,1.7,1.4,1.7c0.6,0,1.2-0.2,2-0.5L199.6,50.4L199.6,50.4z"/>
			<path fill="#2B2422" d="M49.6,68.1c0.5,0.5,0.7,1.1,0.7,1.9v4.3H48v-3.7c0-0.4-0.1-0.7-0.3-0.9c-0.2-0.2-0.5-0.3-0.9-0.3
				c-0.4,0-0.7,0.2-1,0.4c-0.2,0.3-0.4,0.7-0.4,1.1v3.4h-2.2V65h2.2v3.7c0.2-0.4,0.6-0.7,0.9-0.9c0.4-0.2,0.8-0.3,1.3-0.3
				C48.5,67.4,49.1,67.7,49.6,68.1L49.6,68.1z"/>
			<polygon fill="#2B2422" points="51.8,65 54.1,65 54.1,74.4 51.8,74.4 51.8,65 			"/>
			<path fill="#2B2422" d="M59.3,72.7c0.3-0.2,0.4-0.4,0.5-0.6v-0.6h-1.3c-0.6,0-0.9,0.2-0.9,0.7c0,0.2,0.1,0.4,0.2,0.6
				c0.2,0.1,0.4,0.2,0.7,0.2C58.7,72.9,59,72.9,59.3,72.7L59.3,72.7z M61.1,68.1c0.5,0.4,0.8,1,0.8,1.8v4.5h-2.2v-0.8
				c-0.5,0.6-1.1,0.9-2.1,0.9c-0.7,0-1.3-0.2-1.7-0.6c-0.4-0.4-0.6-0.9-0.6-1.6c0-0.7,0.2-1.2,0.7-1.5c0.5-0.4,1.1-0.5,1.9-0.6h1.8
				v-0.1c0-0.3-0.1-0.6-0.3-0.8c-0.2-0.2-0.5-0.3-1-0.3c-0.3,0-0.6,0-1,0.1c-0.4,0.1-0.7,0.2-1.1,0.4l-0.6-1.5
				c0.6-0.3,1.1-0.4,1.6-0.6c0.5-0.1,1-0.2,1.6-0.2C59.9,67.4,60.6,67.6,61.1,68.1L61.1,68.1z"/>
			<polygon fill="#2B2422" points="62.5,67.5 64.8,67.5 66.3,72.3 67.7,67.5 70,67.5 67.4,74.4 65.1,74.4 62.5,67.5 			"/>
			<path fill="#2B2422" d="M72.8,69.7c-0.3,0.3-0.4,0.7-0.4,1.2c0,0.5,0.1,0.9,0.4,1.2c0.3,0.3,0.6,0.5,1.1,0.5
				c0.4,0,0.8-0.2,1.1-0.5c0.3-0.3,0.4-0.7,0.4-1.2c0-0.5-0.1-0.9-0.4-1.2c-0.3-0.3-0.6-0.5-1.1-0.5C73.5,69.3,73.1,69.4,72.8,69.7
				L72.8,69.7z M75.8,67.9c0.6,0.3,1,0.7,1.3,1.2c0.3,0.5,0.5,1.1,0.5,1.8c0,0.7-0.2,1.3-0.5,1.8c-0.3,0.5-0.7,0.9-1.3,1.2
				c-0.6,0.3-1.2,0.4-2,0.4c-0.7,0-1.4-0.1-2-0.4c-0.6-0.3-1-0.7-1.3-1.2c-0.3-0.5-0.5-1.1-0.5-1.8c0-0.7,0.2-1.3,0.5-1.8
				c0.3-0.5,0.7-0.9,1.3-1.2c0.6-0.3,1.2-0.4,2-0.4C74.6,67.4,75.3,67.6,75.8,67.9L75.8,67.9z"/>
			<path fill="#2B2422" d="M85.4,67.5v6.9h-2.2v-1.1c-0.5,0.8-1.2,1.2-2.2,1.2c-0.7,0-1.3-0.2-1.8-0.7c-0.4-0.5-0.7-1.1-0.7-1.9
				v-4.3h2.2v3.7c0,0.4,0.1,0.7,0.3,0.9c0.2,0.2,0.5,0.3,0.8,0.3c0.4,0,0.7-0.2,0.9-0.4c0.2-0.3,0.3-0.7,0.3-1.1v-3.4H85.4
				L85.4,67.5z"/>
			<path fill="#2B2422" d="M97.5,69c-0.2,0-0.4,0-0.5,0.1c-0.1,0.1-0.2,0.2-0.2,0.3c0,0.2,0.1,0.3,0.3,0.4c0.2,0.1,0.5,0.2,0.9,0.3
				c0.5,0.1,0.9,0.3,1.2,0.4c0.3,0.1,0.6,0.4,0.8,0.6c0.2,0.3,0.4,0.7,0.4,1.1c0,0.7-0.3,1.2-0.8,1.6c-0.5,0.4-1.2,0.6-2.1,0.6
				c-0.6,0-1.1-0.1-1.7-0.2c-0.5-0.2-1-0.4-1.4-0.7l0.7-1.5c0.4,0.3,0.8,0.5,1.2,0.6c0.4,0.1,0.8,0.2,1.2,0.2c0.2,0,0.4,0,0.5-0.1
				c0.1-0.1,0.2-0.2,0.2-0.3c0-0.2-0.1-0.3-0.3-0.4c-0.2-0.1-0.5-0.2-0.9-0.3c-0.5-0.1-0.9-0.3-1.2-0.4c-0.3-0.1-0.6-0.3-0.8-0.6
				c-0.2-0.3-0.3-0.6-0.3-1.1c0-0.7,0.3-1.2,0.8-1.6c0.5-0.4,1.2-0.6,2-0.6c0.5,0,1,0.1,1.5,0.2c0.5,0.1,0.9,0.3,1.4,0.6l-0.8,1.5
				C98.7,69.2,98,69,97.5,69L97.5,69z"/>
			<path fill="#2B2422" d="M104.8,67.7c0.4-0.2,0.8-0.3,1.3-0.3v2.1c-0.1,0-0.2,0-0.3,0c-0.5,0-1,0.1-1.3,0.4
				c-0.3,0.2-0.5,0.6-0.6,1v3.5h-2.2v-6.9h2.2v1.1C104.1,68.3,104.4,68,104.8,67.7L104.8,67.7z"/>
			<path fill="#2B2422" d="M111.3,72.2c0.3-0.3,0.4-0.7,0.4-1.2c0-0.5-0.1-0.9-0.4-1.2c-0.3-0.3-0.6-0.5-1.1-0.5s-0.8,0.2-1.1,0.5
				c-0.3,0.3-0.4,0.7-0.4,1.2c0,0.5,0.1,0.9,0.4,1.2c0.3,0.3,0.6,0.5,1.1,0.5S111,72.5,111.3,72.2L111.3,72.2z M113.9,65v9.4h-2.2
				v-0.9c-0.2,0.3-0.5,0.6-0.9,0.7c-0.3,0.2-0.7,0.2-1.2,0.2c-0.6,0-1.2-0.1-1.7-0.4c-0.5-0.3-0.9-0.7-1.1-1.2
				c-0.3-0.5-0.4-1.2-0.4-1.9c0-0.7,0.1-1.3,0.4-1.8c0.3-0.5,0.6-0.9,1.1-1.2c0.5-0.3,1-0.4,1.6-0.4c0.4,0,0.8,0.1,1.2,0.3
				c0.4,0.2,0.6,0.4,0.9,0.7V65H113.9L113.9,65z"/>
			<path fill="#2B2422" d="M118.8,69.3c-0.4,0-0.7,0.2-1,0.5c-0.3,0.3-0.4,0.7-0.4,1.2c0,0.5,0.1,0.9,0.4,1.2c0.3,0.3,0.6,0.5,1,0.5
				c0.6,0,1.1-0.3,1.3-0.8l1.7,1c-0.3,0.5-0.7,0.9-1.2,1.2c-0.5,0.3-1.2,0.4-1.9,0.4c-0.7,0-1.3-0.1-1.8-0.4
				c-0.5-0.3-0.9-0.7-1.2-1.2c-0.3-0.5-0.4-1.1-0.4-1.8c0-0.7,0.1-1.3,0.4-1.9c0.3-0.5,0.7-1,1.2-1.2c0.5-0.3,1.2-0.4,1.9-0.4
				c0.7,0,1.3,0.1,1.8,0.4c0.5,0.3,0.9,0.7,1.2,1.2l-1.6,1C119.8,69.5,119.3,69.3,118.8,69.3L118.8,69.3z"/>
			<path fill="#2B2422" d="M127.1,70.3c0-0.4-0.1-0.7-0.3-1c-0.2-0.2-0.5-0.4-0.9-0.4c-0.4,0-0.6,0.1-0.9,0.4
				c-0.2,0.2-0.4,0.6-0.5,1H127.1L127.1,70.3z M128.4,68.4c0.6,0.7,0.9,1.6,0.9,2.7c0,0.2,0,0.3,0,0.4h-4.7c0.1,0.4,0.3,0.7,0.6,0.9
				c0.3,0.2,0.6,0.3,1,0.3c0.3,0,0.6-0.1,0.9-0.2c0.3-0.1,0.5-0.3,0.8-0.5l1.2,1.2c-0.4,0.4-0.8,0.7-1.3,0.9
				c-0.5,0.2-1.1,0.3-1.7,0.3c-0.7,0-1.4-0.1-1.9-0.4c-0.5-0.3-1-0.7-1.3-1.2c-0.3-0.5-0.4-1.1-0.4-1.8c0-0.7,0.1-1.3,0.4-1.9
				c0.3-0.5,0.7-1,1.3-1.2c0.5-0.3,1.2-0.4,1.9-0.4C126.9,67.4,127.8,67.8,128.4,68.4L128.4,68.4z"/>
			<path fill="#2B2422" d="M141.3,68.1c0.4,0.5,0.7,1.1,0.7,1.9v4.3h-2.2v-3.7c0-0.4-0.1-0.7-0.3-0.9c-0.2-0.2-0.5-0.3-0.8-0.3
				c-0.4,0-0.7,0.2-0.9,0.4c-0.2,0.3-0.3,0.7-0.3,1.1v3.4h-2.2v-3.7c0-0.4-0.1-0.7-0.3-0.9c-0.2-0.2-0.5-0.3-0.8-0.3
				c-0.4,0-0.7,0.2-0.9,0.4c-0.2,0.3-0.4,0.7-0.4,1.1v3.4h-2.2v-6.9h2.2v1.1c0.2-0.4,0.5-0.7,0.9-0.9c0.4-0.2,0.8-0.3,1.3-0.3
				c0.6,0,1,0.1,1.4,0.4c0.4,0.3,0.7,0.6,0.8,1.1c0.2-0.5,0.5-0.9,0.9-1.1c0.4-0.3,0.9-0.4,1.4-0.4
				C140.3,67.4,140.9,67.7,141.3,68.1L141.3,68.1z"/>
			<path fill="#2B2422" d="M154,67.7c0.4-0.2,0.8-0.3,1.3-0.3v2.1c-0.1,0-0.2,0-0.3,0c-0.5,0-1,0.1-1.3,0.4c-0.3,0.2-0.5,0.6-0.6,1
				v3.5h-2.2v-6.9h2.2v1.1C153.3,68.3,153.6,68,154,67.7L154,67.7z"/>
			<path fill="#2B2422" d="M163.5,67.5v6.9h-2.2v-1.1c-0.5,0.8-1.2,1.2-2.2,1.2c-0.7,0-1.3-0.2-1.8-0.7c-0.4-0.5-0.7-1.1-0.7-1.9
				v-4.3h2.2v3.7c0,0.4,0.1,0.7,0.3,0.9c0.2,0.2,0.5,0.3,0.8,0.3c0.4,0,0.7-0.2,0.9-0.4c0.2-0.3,0.3-0.7,0.3-1.1v-3.4H163.5
				L163.5,67.5z"/>
			<polygon fill="#2B2422" points="169.7,74.4 168.2,71.8 167.6,72.5 167.6,74.4 165.3,74.4 165.3,65 167.6,65 167.6,69.8 
				169.7,67.5 172.3,67.5 169.8,70.2 172.3,74.4 169.7,74.4 			"/>
			<path fill="#2B2422" d="M176.6,72.7c0.3-0.2,0.4-0.4,0.5-0.6v-0.6h-1.3c-0.6,0-0.9,0.2-0.9,0.7c0,0.2,0.1,0.4,0.2,0.6
				c0.2,0.1,0.4,0.2,0.7,0.2C176.1,72.9,176.4,72.9,176.6,72.7L176.6,72.7z M178.5,68.1c0.5,0.4,0.8,1,0.8,1.8v4.5h-2.2v-0.8
				c-0.5,0.6-1.1,0.9-2.1,0.9c-0.7,0-1.3-0.2-1.7-0.6c-0.4-0.4-0.6-0.9-0.6-1.6c0-0.7,0.2-1.2,0.7-1.5c0.5-0.4,1.1-0.5,1.9-0.6h1.8
				v-0.1c0-0.3-0.1-0.6-0.3-0.8c-0.2-0.2-0.5-0.3-1-0.3c-0.3,0-0.6,0-1,0.1c-0.4,0.1-0.7,0.2-1.1,0.4l-0.6-1.5
				c0.6-0.3,1.1-0.4,1.6-0.6c0.5-0.1,1-0.2,1.6-0.2C177.3,67.4,178,67.6,178.5,68.1L178.5,68.1z"/>
			<path fill="#2B2422" d="M191.7,68.1c0.4,0.5,0.7,1.1,0.7,1.9v4.3h-2.2v-3.7c0-0.4-0.1-0.7-0.3-0.9c-0.2-0.2-0.5-0.3-0.8-0.3
				c-0.4,0-0.7,0.2-0.9,0.4c-0.2,0.3-0.3,0.7-0.3,1.1v3.4h-2.2v-3.7c0-0.4-0.1-0.7-0.3-0.9c-0.2-0.2-0.5-0.3-0.8-0.3
				c-0.4,0-0.7,0.2-0.9,0.4c-0.2,0.3-0.4,0.7-0.4,1.1v3.4h-2.2v-6.9h2.2v1.1c0.2-0.4,0.5-0.7,0.9-0.9c0.4-0.2,0.8-0.3,1.3-0.3
				c0.6,0,1,0.1,1.4,0.4c0.4,0.3,0.7,0.6,0.8,1.1c0.2-0.5,0.5-0.9,0.9-1.1c0.4-0.3,0.9-0.4,1.4-0.4
				C190.7,67.4,191.3,67.7,191.7,68.1L191.7,68.1z"/>
			<path fill="#2B2422" d="M197.3,72.7c0.3-0.2,0.4-0.4,0.5-0.6v-0.6h-1.3c-0.6,0-0.9,0.2-0.9,0.7c0,0.2,0.1,0.4,0.2,0.6
				c0.2,0.1,0.4,0.2,0.7,0.2C196.8,72.9,197.1,72.9,197.3,72.7L197.3,72.7z M199.2,68.1c0.5,0.4,0.8,1,0.8,1.8v4.5h-2.2v-0.8
				c-0.5,0.6-1.1,0.9-2.1,0.9c-0.7,0-1.3-0.2-1.7-0.6c-0.4-0.4-0.6-0.9-0.6-1.6c0-0.7,0.2-1.2,0.7-1.5c0.4-0.4,1.1-0.5,1.9-0.6h1.8
				v-0.1c0-0.3-0.1-0.6-0.3-0.8c-0.2-0.2-0.5-0.3-1-0.3c-0.3,0-0.6,0-1,0.1c-0.4,0.1-0.7,0.2-1.1,0.4l-0.6-1.5
				c0.6-0.3,1.1-0.4,1.6-0.6c0.5-0.1,1-0.2,1.6-0.2C198,67.4,198.7,67.6,199.2,68.1L199.2,68.1z"/>
			<path fill="#74B731" d="M148.1,73.2c0,1-0.8,1.8-1.8,1.8c-1,0-1.8-0.8-1.8-1.8c0-1,0.8-1.8,1.8-1.8
				C147.3,71.3,148.1,72.1,148.1,73.2L148.1,73.2z"/>
			<path fill="#74B731" d="M92,73.1c0,1-0.8,1.8-1.8,1.8c-1,0-1.8-0.8-1.8-1.8c0-1,0.8-1.8,1.8-1.8C91.1,71.2,92,72.1,92,73.1
				L92,73.1z"/>
		</g>
	</g>
</g>
</svg>
